/* XPM */
static char *xpm_[] = {
/* columns rows colors chars-per-pixel */
"64 64 72 1 ",
"  c black",
". c gray2",
"X c #0B0B0B",
"o c #0E0E0E",
"O c #111111",
"+ c gray8",
"@ c gray10",
"# c #1E1E1E",
"$ c #222222",
"% c #252525",
"& c #2A2A2A",
"* c #2F2F2F",
"= c gray20",
"- c gray21",
"; c gray23",
": c #3F3F3F",
"> c #414141",
", c #444444",
"< c #494949",
"1 c #4C4C4C",
"2 c gray32",
"3 c gray34",
"4 c #5A5A5A",
"5 c gray37",
"6 c #4A7F4B",
"7 c #487E4C",
"8 c #626262",
"9 c gray40",
"0 c gray42",
"q c gray43",
"w c #727272",
"e c gray46",
"r c gray47",
"t c #7E7E7E",
"y c #64943F",
"u c #64953F",
"i c #66963E",
"p c #6B9A3B",
"a c #6B9B3B",
"s c #6F9E38",
"d c #6E9E39",
"f c #69993C",
"g c #68983D",
"h c #69993D",
"j c #709F37",
"k c #709F38",
"l c #75A433",
"z c #73A334",
"x c #70A037",
"c c #71A037",
"v c #74A334",
"b c #75A434",
"n c #4D814A",
"m c #558747",
"M c #5D8E43",
"N c #5A8C44",
"B c #5B8C44",
"V c #5A8C45",
"C c #5C8D44",
"Z c #508449",
"A c #538648",
"S c #5F9042",
"D c #619241",
"F c #649440",
"G c #818181",
"H c gray54",
"J c #8D8D8D",
"K c gray57",
"L c #959595",
"P c gray62",
"I c #A0A0A0",
"U c #A7A7A7",
/* pixels */
"vvvvllclcllclcllvvvvvvvvvvvvvvvvvvvvvvvvlclclllclclllclclllclcll",
"vvvvlcllllllllclvvvvvvvvvvvvvvvvvvvvvvvvllllclllllclllllcllllldg",
"vvvvllbbcclcllllvvvvvvvvvvvvvvvvvvvbvvvvlclllclclllllclllclclcDm",
"vvvvlccgxlllclclvvvvvvvvvvvvvvvvvkgdvvvvllclllllclclllcllllldiDM",
"vvvvvvgBillllcllvvvvvvvvvvvvvvvvciBivvvvlclclllllllclllcvvvciBid",
"vvvvjgDDacclllclvvvvvvvvvvvvvvvjgDDdvvvvllllclclclllclllvvcgDDpv",
"vvvvdMMdlvlcllllvvvvvvvvvvvvvvvdMMdcvvvvlclllllclclclclcvvaMDjvc",
"vvvvcigcvvllclclvvvvvvvr@1= %vvjigq;$1+0llclclllllllllllvvdigcpD",
"vvvvlccvvvvvvvvvvvvvvv5 +. XX *cc@O  4 X;bcllclcvvvvvvvvvvvcvjDm",
"vvvvvvlvvvvvvvvvvvvvvv o oXo@@;t@.  ->   *llllllvvvvvvvvvvvvvvgi",
"vvvvvvvvvvvvvvvvvvvvv%.@oX  o+*5$ +O oO O tclcllvvvvvvvvvvvvvvvj",
"vvvvvvvvvvvvvvvvvvvvv.# XX+$#o@=%@ .++ +.XXlllclvvvvvvvvvvvvvvvl",
"vvvvvvvvvvvvvvvvvvvvb ++O  oo+&-bI@1% @  O bbblcvvvvvvvvvvvvvvvv",
"vvvvvvvvvvvvvvvvvvvvbo oO oo=@+.UL#%# oX@o clcllvvvvvvvvvvvvvvvv",
"vvvvvvvvvvvvvvvvvvvvv.O.   o.X*9&@:@ %% .@ blllcvvvvvvvvvvvvvvvv",
"vvvvvvvvvvvvvvvvvvvvv+o.ooXXo$&&o@ .% :;Oo+blcl:+X.;evvvvvvvvvvv",
"vvvvvvvvvvvvvvvvvvvvvvO   O +O&$&.o%w++-&X$vve.  @O X8vvvvvvvvvv",
"vvvvvvvvvvvv- o;8vvvvv->=.X oX;1+ $1r-1.XOvv5  .o  XXowvvvvvvvvv",
"vvvvvvvvvv, #$<4=O$vvvv.-$O. #&O &@1e-e*X#v<&v83++o@  #vvvvvvvdg",
"vvvvvvvvv* &o4P.o. otvvw o$@ .o .O<<09@<Xvv- 5vvvv* o+.vvvvvvcDm",
"vvvvvvvvvoO#>: o. #+.vvve. %- X++X><*,+ovv9 o   5K* 2$ qvvvvvcgM",
"vvvvvvvv; <v= oX +@4oovvvv.X4+..OO>1$+;vvv;-O X..X.+vv*qvvvvvvck",
"vvvvvvvv@&;w*%+   X@#Xvvvvv &O+@OOXw#8vvvvXo+@X@  o &,@evvvvllll",
"vvvvvvvv;q-$ +oOX . &#<vvvv>@o.X o =1vvvv, @ooo Oo X   vvvvvvlcc",
"vvvvvvvv<;OO @ X +.X+*+llvvv XX ..=ovvvvv ;%O:X# + .#;$vvvvvvcgD",
"vvvvvvvvvo +O=O  + o.+ ccvvv*X+ o #5vvvv>#O o..X+  oX$Oo5vvvvcDm",
"vvvvvvvvvO.X #$XXXX O X$Ddvvv Xoo  qvvve9t>@@ $   XoX. . ;vvlcai",
"vvvvvvvv#XXX .+.o.O + o $iccv .++@.vvv0.q=t+ - X >-X.oX.#.wvvvvc",
"vvvvvvvO 1+.+ o   XX   o oDcv*..XX+vv5 oo&;$oo#.oo#* o=O$O vvvvl",
"vvvvvv$@oX o. X  o X .  . .3v:@ oo&v%..X+#$+O@+ o; O OX$XO+vvvvv",
"vvvvv5@o   ..O%.X  Oo  O +o * X+ #+ .XXX +%#oO#+ oX#@+@ +X qvvvv",
"vvvvv%+X.+O. #;o.   .X   @$ O. oo.* O X.OXO@@+@#&.#@#$5-o@+vvvvv",
"vvvvv:OX .+%o o .O*@@oX.X+@oOO . .&+ X@ X.O@+O+++ $@@+2;#@-vvvvv",
"vvvvv&.X+O*03Oo% .&$O X&o%#O  . .$.Oo.X .oO..@%+X.o.oXO@% 5vkakv",
"vvvvv  o@-***oo@O#&OXX.    o X+oX. X. 8q1tvK>XX#O+  O$ + @vbiBgv",
"vvvlc<.X&r1  @$@OO +1vvvvvv5@X  @o#  =vvvvvvvv1  XoO#% +*vcgDDav",
"vvvvdMX #G3 .OO$XX>vvvvvvvve ooo.. .&oOJvvvvvvvv*%%X .+<vvpCDdcc",
"vvvvdii&   + + XXvvvvvvvvv2  X..O +X%OX.>vvvvvvvvvvGvvvvvvjigcai",
"vvvvvjcvq*@O&5%9vvvvvvvvv: @& .=1, .oo.  >rvvvvvvvvvvvvvvvvjvcFA",
"vvvvvvlvvvvvvvvvvvvvvvve. o@oXX vv X X  oXX..   o>evvvvvvvvvvcgD",
"vvvvvvvvvvvvvvvvvv2::-#.X   ooX%vv,. X.   Xo .oX.  .Jvvvvvvvvvjc",
"vvvvvvvvvvvvvvv1o  o. o$o$$#-o qvvv ... ..++.O#X O.  %vvvvvvvvll",
"vvvvvvvvvvvvvv.  XOo    X11OO +vvvv$o . X..  $*+O.XO.$vvvvvvclvc",
"vvvvvvvvvvvvt.@+XX. oOX  o@#=o%vvvv0oX    ..O$#X+@*XXo 9vvvvlciM",
"vvvvvvvvvvvv*#@.  XOo  O  +X@@,vvvvv.o X.X. .o@%X%  Oo $lllllcim",
"vvvvvvvvvvv1;rX@. XOX.oOX @X .+vvvvvo X.    X@##%*X# X%&lclclcdg",
"vvvvvvvvvvv@O;oooXOO.   @ X  .ovvvveoO.X XOoo++OO+ X oX.clllllzz",
"vvvvvvvvvvv. .O. XOo.XoX# ooX..vvvv,.@ X XOOO+OXo+#+ $+.lllclclz",
"vvvvvvvvvvvO..X  XOoX+#+X #%+  vvvv@Xo .X  o@@+oX   @=X@vvvvvvvv",
"vvvvvvvvvvv* ;@ XoOX o+o  O$O  vvvv.O . o  +$+O+O+..%#@vvvvvvvvv",
"vvvvvvvvvvv1 4*o..X.  X.+  XXX 5vvv.+ X   X##X.OXXXX ;vvvvvvvvvv",
"vvvvvvvvvvvv$=O.   o. .X@X   O.>vvvoo@X   o+o  .o.X-:vvvvvvvvvvv",
"lvvvvvvvvvvv9o XX X@o  ...   X -vvv#X=o.XX.  .. 1vbvvvvvvvvvvlvv",
"cvvvvvvvvvvvvv<.X O# #> X   OO=>vvv0 :O X XoX ..vvllvvvvvvvvclvv",
"igbbvvvvvvvvvvvvvvv%XK> @$O &X vvvvv +&X.O#O+. $vvvlvlvvvvjigvbv",
"ZDclvvvvvvvvvvvvvvv&.$#O*.@+  .vvvvv4 .@oX &: X0vvccclvvvvdMDccv",
"Dgvvvvvvvvvvvvvvvvvv oo .X+oOX&lvvvvv>  X @*O ;vzzgudllcvvjiDDdc",
"cvvvvvvvvvvvvvvvvvvv2 .+. Xo. wlvvvvvve+    .2vvlciBgcllvvvciBic",
"blvvvvvvvvvvvvvvvvvvv$ .+ .o+0lcvvvvvvvve,<4GvvvcldiSiczvllvdiDM",
"vvjcvvvvvvvvvvvvvvvvvv8. $ otbllvvvvvvvvvvvvvvvvzlcxSMdlccjvlcMn",
"vgDgvvvvvvlcvvvvvvvvzzcbHrgclclcllllvvvvvvvvvvzzlcllppzlxiuxlcS6",
"diBgvvvvvzcpdjvvvvvvcddxvvllllllclclvkpdjvvvvzcdddczclllcSBpdpB6",
"BDgdvvvvvjDBCgvvvvzdiBBgclbvlcllllbcdDBBgzvvvvdiBBgcllzlcdiBBBnn",
"6MclvvvvvdB7nDvvzlldB7nDcbvvllclclzlpB7nivvvvvdB66DzlcbzzlpZ767n"
};
