/* XPM */
static char *e4ea04e447fa485fc13d45108d70bab6eqJsIqY8SpkxdvyW[] = {
/* columns rows colors chars-per-pixel */
"64 64 61 1 ",
"  c None",
". c #675353",
"X c black",
"o c #211D1D",
"O c #6F5756",
"+ c #FCA89D",
"@ c #D41900",
"# c #FE8270",
"$ c #A15C52",
"% c #812611",
"& c #FB9B72",
"* c #E17B50",
"= c #FF4D00",
"- c #A84111",
"; c #8C6A56",
": c #453625",
"> c #874A00",
", c #BAA368",
"< c #FAE898",
"1 c #FAFA82",
"2 c #D3D9B2",
"3 c #999F8E",
"4 c #82A368",
"5 c #00FF8C",
"6 c #07BB79",
"7 c #323C39",
"8 c #14605D",
"9 c #696A6A",
"0 c #00EDFF",
"q c #DEF9FC",
"w c #748F93",
"e c #17394A",
"r c #3494CB",
"t c #3B6983",
"y c #0C1317",
"u c #12274D",
"i c #A5B5D4",
"p c #0F1833",
"a c #4C63E0",
"s c #CDD1EC",
"d c #42428F",
"f c #31314B",
"g c #1E1B80",
"h c #2F1D5A",
"j c #5A5875",
"k c #222034",
"l c #76428A",
"z c #B598B2",
"x c #8D768A",
"c c #D77BBA",
"v c #8F4975",
"b c #472138",
"n c #EF3E6D",
"m c #70162B",
"M c #5C855B",
"N c #244B3A",
"B c #111F12",
"V c #1B0B0B",
"C c #10162E",
"Z c #1A130F",
"A c #1C1429",
/* pixels */
" 22222222222222222222222222222222222222222222222222222222222222 ",
"2222222222222222222222222222222222222222222222222222222222222222",
"2222222222222222222222222222222222222222222222222222222222222222",
"2222222222222222222222222222222222222222222222222222222222222222",
"2222222222222222222222222222222222222222222222222222222222222222",
"2222222222222222222222222222222222222222222222222222222222222222",
"zzzzzzzzzzzzzzzzzzzzzzzzzzzzzzzzzzzzzzzzzzzzzzzzzzzzzzzzzzzzzzzz",
"xxxxxxxxxxxxxxxxxxxxxxxxxxxxxxxxxxxxxxxxxxxxxxxxxxxxxxxxxxxxxxxx",
"jjjjjjjjjjjjjjjjjjjjjjjjjjjjjjjjjjjjjjjjjjjjjjjjjjjjjjjjjjjjjjjj",
"jjjjjjjjjjjjjjjjjjjjjjjjjjjjjjjjjjjjjjjjjjjjjjjjjjjjjjjjjjjjjjjj",
"jjjjjjjjjjjjjjjjjjjjjjjjjjjjjjjjjjjjjjjjjjjjjjjjjjjjjjjjjjjjjjjj",
"jjjjjjjjjjjjjjjjjjjjjjjjjjjjjjjjjjjjjjjjjjjjjjjjjjjjjjjjjjjjjjjj",
"jjjjjjjjjjjjjjjjjjjjjjjjjjjjjjjjjjjjjjjjjjjjjjjjjjjjjjjjjjjjjjjj",
"jjjjjjjjjffffffffffffffffffffffffffffffffffffffffffffffjjjjjjjjj",
"jjjjjjjjfkyAAAAAAAAAAAAAAAAAAAAAAAAAAAAAAAAAAAAAAAAAAykfjjjjjjjj",
"jjjjjjjjfkXyyXXXXXXXXXXyyyXXXXXXXXXXXXyyyXXXXXXXXXXyyXAfjjjjjjjj",
"jjjjjjjjfkyyyAkkkkkkkkkAyAAkkkkkkkkkkkAyAkkkkkkkkkAAyykfjjjjjjjj",
"jjjjjjjjfkyykfffffffffffkkfffffffffffffAfffffffffffkyXkfjjjjjjjj",
"jjjjjjjjfkXyfjjjjjjjjjjfkfjjjjjjjjjjjjfkfjjjjjjjjjjfAXkfjjjjjjjj",
"jjjjjjjjfkXyfjjjjjjjjjjfkfjjjjjjjjjjjjfkfjjjjjjjjjjfAXkfjjjjjjjj",
"jjjjjjjjfkXyfjjjjjjjjjjfkfjjjjjjjjjjjjfkfjjjjjjjjjjfAXkfjjjjjjjj",
"jjjjjjjjfkXyfjjjjjjjjjjfkfjjjjjjjjjjjjjfjjjjjjjjjjjfAXkfjjjjjjjj",
"jjjjjjjjfkXyfjjjjjjjjjjfkfjjjjjjjjjjjjjjjjjjjjjjjjjfAXkfjjjjjjjj",
"jjjjjjjjfkXyfjjjjjjjjjjfkfjjjjjjjjjjjjjjjjjjjjjjjjjfAXkfjjjjjjjj",
"jjjjjjjjfkXyfjjjjjjjjjjfkfjjjjjjjjjjjjjjjjjjjjjjjjjfAXkfjjjjjjjj",
"jjjjjjjjfkXyfjjjjjjjjjjfkfjjjjjjjjjjjjjjjjjjjjjjjjjfAXkfjjjjjjjj",
"jjjjjjjjfkXyfjjjjjjjjjjfkfjjjjjjjjjjjjjjjjjjjjjjjjjfAXkfjjjjjjjj",
"jjjjjjjjfkXyfjjjjjjjjjjfkfjjjjjjjjjjjjjjjjjjjjjjjjjfAXkfjjjjjjjj",
"jjjjjjjjfkXyfjjjjjjjjjjfkfjjjjjjjjjjjjjjjjjjjjjjjjjfAXkfjjjjjjjj",
"jjjjjjjjfkXyfjjjjjjjjjjfkfjjjjjjjjjjjjjjjjjjjjjjjjjfAXkfjjjjjjjj",
"jjjjjjjjfkXyfjjjjjjjjjjfkfjjjjjjjjjjjjjjjjjjjjjjjjjfAXkfjjjjjjjj",
"jjjjjjjjfkXyfjjjjjjjjjjfffjjjjjjjjjjjjjjjjjjjjjjjjjfAXkfjjjjjjjj",
"jjjjjjjjfkXyfjjjjjjjjjjjjjjjjjjjjjjjjjjfjjjjjjjjjjjfAXkfjjjjjjjj",
"jjjjjjjjfkXyfjjjjjjjjjjjjjjjjjjjjjjjjjf7fjjjjjjjjjjfAXkfjjjjjjjj",
"jjjjjjjjfkXyfjjjjjjjjjjjjjjjjjjjjjjjjjfkfjjjjjjjjjjfAXkfjjjjjjjj",
"jjjjjjjjfkXyfjjjjjjjjjjfffjjjjjjjjjjjjf7fjjjjjjjjjjfAXkfjjjjjjjj",
"jjjjjjjjfkXyfjjjjjjjjjjf7fjjjjjjjjjjjjjfjjjjjjjjjjjfAXkfjjjjjjjj",
"jjjjjjjjfkXyfjjjjjjjjjjf7fjjjjjjjjjjjjjjjjjjjjjjjjjfAXkfjjjjjjjj",
"jjjjjjjjfkXyfjjjjjjjjjjf7fjjjjjjjjjjjjjjjj9xxxxjjjjfAXkfjjjjjjjj",
"jjjjjjjjfkXyfjjjjjjjjjjf7fjjjjjjjjjjjjjjjjx3zzxxjjjfAXkfjjjjjjjj",
"jjjjjjjjfkXyfjjjjjjjjjjf7fjjjjjjjjjjjjjjjxxzzzzxxjjfAXkfjjjjjjjj",
"jjjjjjjjfkXyfjjjjjjjjjjf7fjjjjjjjjjjjjjjx3zzzzzzxxjfAXkfjjjjjjjj",
"jjjjjjjjfkXyfjjjjjjjjjjf7fjjjjjjjjjjjjjjxzzzzzzzzxjfAXkfjjjjjjjj",
"jjjjjjjjfkXyfjjjjjjjjjjf7fjjjjjjjjjjjjjjxzzzzzzzzxjfAXkfjjjjjjjj",
"jjjjjjjjfkXyfjjjjjjjjjj.ffjjjjjjjjjjjjjjx3zzzzzzxxjfAXkfjjjjjjjj",
"jjjjjjjjfkXyfjjjjjjjjjjjjjjjjjjjjjjjjjjjjxxzzzzx9jjfAXkfjjjjjjjj",
"jjjjjjjjfkXyfjjjjjjjjjjjjjjjjjjjjjjjjjjjj.x3zzx9.jjfAXkfjjjjjjjj",
"jjjjjjjjfkXyfjjjjjjjjjjjjjjjjjjjjjjjjjjjjjjxxx9jjjjfAXkfjjjjjjjj",
"jjjjjjjjfkXyfjjjjjjjjjjjjjjjjjjjjjjjjjjjjjj....jjjjfAXkfjjjjjjjj",
"jjjjjjjjfkXyfjjjjjjjjjjjjjjjjjjjjjjjjjjjjjj.f.jjjjjfAXkfjjjjjjjj",
"jjjjjjjjfkXyfjjjjjjjjjjjjjjjjjjjjjjjjjjjjjjjjjjjjjjfAXkfjjjjjjjj",
"jjjjjjjjfkXyfjjjjjjjjjjjjjjjjjjjjjjjjjjjjjjjjjjjjjjfAXkfjjjjjjjj",
"jjjjjjjjfkXyfjjjjjjjjjj.ffjjjjjjjjjjjjfffjjjjjjjjjjfAXkfjjjjjjjj",
"jjjjjjjjfkXyfjjjjjjjjjjf7fjjjjjjjjjjjjfkfjjjjjjjjjjfAXkfjjjjjjjj",
"jjjjjjjjfkXyfjjjjjjjjjjf7fjjjjjjjjjjjjf7fjjjjjjjjjjfAXkfjjjjjjjj",
"jjjjjjjjfkXyfjjjjjjjjjjf7fjjjjjjjjjjjjjfjjjjjjjjjjjfAXkfjjjjjjjj",
"jjjjjjjjfkXyfjjjjjjjjjjf7fjjjjjjjjjjjjjjjjjjjjjjjjjfAXkfjjjjjjjj",
"jjjjjjjjfkXyfjjjjjjjjjjf7fjjjjjjjjjjjjjjjjjjjjjjjjjfAXkfjjjjjjjj",
"jjjjjjjjfkXyfjjjjjjjjjjf7fjjjjjjjjjjjjjjjjjjjjjjjjjfAXkfjjjjjjjj",
"jjjjjjjjfkXyfjjjjjjjjjjf7fjjjjjjjjjjjjjjjjjjjjjjjjjfAXkfjjjjjjjj",
"jjjjjjjjfkXyfjjjjjjjjjjf7fjjjjjjjjjjjjjfjjjjjjjjjjjfAXkfjjjjjjjj",
"jjjjjjjjfkXyfjjjjjjjjjjfkfjjjjjjjjjjjjf7fjjjjjjjjjjfAXkfjjjjjjjj",
"jjjjjjjjfkyykffffffffff7okffffffffffffkokffffffffffkyykfjjjjjjjj",
"jjjjjjjjfkyyyAAAAAAAAAAyyyAAAAAAAAAAAAyyyAAAAAAAAAAyyykfjjjjjjjj"
};
