/* XPM */
static char * exit_open_xpm[] = {
"64 64 38 1",
" 	c #74A334",
".	c #71A036",
"+	c #6E9D39",
"@	c #69993C",
"#	c #609142",
"$	c #578946",
"%	c #709F38",
"&	c #66963E",
"*	c #5A8C45",
"=	c #5A8B45",
"-	c #6B9A3B",
";	c #75A433",
">	c #5E8F43",
",	c #5C8D44",
"'	c #5F9042",
")	c #6F5756",
"!	c #675353",
"~	c #453625",
"{	c #211D1D",
"]	c #1A130F",
"^	c #000000",
"/	c #1B0B0B",
"(	c #222034",
"_	c #0C1317",
":	c #1C1429",
"<	c #31314B",
"[	c #323C39",
"}	c #649440",
"|	c #709F37",
"1	c #4D814A",
"2	c #6C9B3A",
"3	c #497E4B",
"4	c #75A434",
"5	c #639440",
"6	c #538648",
"7	c #4B804B",
"8	c #487E4C",
"9	c #548747",
"                                                                ",
"                                                             .+@",
"                                                             .#$",
"      %@+                        +@+                        +&#*",
"     .@*&.                      .&*&                       .&=&+",
"    .@##-.                     .@##-                      .&##+;",
"    +>>+.                      +,'+.                      +*#+..",
" )))))))))))))))))))))))))))))))))))))))))))))))))))))))))))))))",
"))))))))))))))))))))))))))))))))))))))))))))))))))))))))))))))))",
"))))))))))))))))))))))))))))))))))))))))))))))))))))))))))))))))",
")))!!!!!!!!!!!!!!!!!!!!!!!!!!!!!!!!!!!!!!!!!!!!!!!!!!!!!!!!!!)))",
")))!!~{~~~~~~~~~~~~~~~~~~~~~~~~~~~~~~~~~~~~~~~~~~~~~~~~~~~~!!)))",
")))!~]^^^^^^^^^^^^^^^^^^^^^^^^^^^^^^^^^^^^^^^/]]]]]]]]]///]~!)))",
")))!(_^^^^^^^^^^^^^^^^^^^^^^^^^^^^^^^^^^^^^^^_]{{{{{{{{]^^_(!)))",
")))!~_^^^^^^^^^^^^^^^^^^^^^^^^^^^^^^^^^^^^^^^/]{{{{{{{{]^^_~!)))",
")))!~_^^^^^^^^^^^^^^^^^^^^^^^^^^^^^^^^^^^^^^^/]{{{{{{{{{^^_~!)))",
")))!~_^^^^^^^^^^^^^^^^^^^^^^^^^^^^^^^^^^^^^^^/]{{{{{{{{{^^_~!)))",
")))!~_^^^^^^^^^^^^^^^^^^^^^^^^^^^^^^^^^^^^^^^/]{{{{{{{{{^^_~!)))",
")))!~__:::::::::::_^^^^^^^^^^^^^^^^^^^^^^^^^^/]]]]]]]]]]^^_~!)))",
")))!~:((((((((((((:^^^^^^^^^^^^^^^^^^^^^^^^^^^//////////^^_~!)))",
")))!~:(<<<<<<<<<<(:^^^^^^^^^^^^^^^^^^^^^^^^^^^///^^^^^^^^^_~!)))",
")))!~:(<<<<<<<<<<(:^^^^^^^^^^^^^^^^^^^^^]]{{{{{{{]/^^^^^^^_~!)))",
")))!~:(<<<<<<<<<<(:^^^^^^^^^^^^^^^^^^^^^]{{{{{{{{]/^^^^^^^_~!)))",
")))!~:(<<<<<<<<<<(:^^^^^^^^^^^^^^^^^^^^^{{{{{{{{{]/^^^^^^^_~!)))",
")))!~:(<<<<<<<<<<(:^^^^^^^^^^^^^^^^^^^^^{{{{{{{{{]/^^^^^^^_~!)))",
")))!~:(<<<<<<<<<<(:^^^^^^^^^^^^^^^^^^^^^{{{{{{{{{]/^^^^^^^_~!)))",
")))!~:(<<<<<<<<<<(:^^^^^^^^^^^^^^^^^^^^^]]]]]]]]]]/^^^^^^^_~!)))",
")))!~:(<<<<<<<<<<(:^^^^^^^^^^^^^^^^^^^^^//////////^^^^^^^^_~!)))",
")))!~:(<<<<<<<<<<(:__::::::::::_^^^^^^^^^^^^^^^^^^^^^^^^^^_~!)))",
")))!~:(<<<<<<<<<<(:_((<<<<<<<<((_^^^^^^^^^^^^^^^^^^^^^^^^^_~!)))",
")))!~:(<<<<<<<<<<(::<<<<<<<<<<<(:^^^^^^^^^^^^^^^^^^^^^^^^^_~!)))",
")))!~:(<<<<<<<<<<(::<<<<<<<<<<<<:^^^^^^^^^^^^^^^^^^^^^^^^^_~!)))",
")))!~:(<<<<<<<<<<(::<<<<<<<<<<<<:^^^^^^^^^^^^^^^^^^^^^^^^^_~!)))",
")))!~:(<<<<<<<<<<(::<<<<<<<<<<<<:^^^^^^^^^^^^^^^^^^^^^^^^^_~!)))",
")))!~:(<<<<<<<<<<(::<<<<<<<<<<<<:^^^^^^^^^^^^^^^^^^^^^^^^^_~!)))",
")))!~:(<<<<<<<<<<(::<<<<<<<<<<<<:^^^^^^^^^^^^^^^^^^^^^^^^^_~!)))",
")))!~:(<<<<<<<<<<(::<<<<<<<<<<<<:^^^^^^^^^^^^^^^^^^^^^^^^^_~!)))",
")))!~:(<<<<<<<<<<(::<<<<<<<<<<<<:^^^^^^^^^^^^^^^^^^^^^^^^^_~!)))",
")))!~:(<<<<<<<<<<(::<<<<<<<<<<<<:^^^^^^^^^^^^^^^^^^^^^^^^^_~!)))",
")))!~:(<<<<<<<<<<(::<<<<<<<<<<<<:_^^^^^^^^^^^^^^^^^^^^^^^^_~!)))",
")))!~:(<<<<<<<<<<(::<<<<<<<<<<<<:__::::::::::__^^^^^^^^^^^_~!)))",
")))!~:(<<<<<<<<<<(::<<<<<<<<<<<<::(<<<<<<<<<<(:^^^^^^^^^^^_~!)))",
")))!~:(<<<<<<<<<<(::<<<<<<<<<<<<::(<<<<<<<<<<(:^^^^^^^^^^^_~!)))",
")))!~:(<<<<<<<<<<(::<<<<<<<<<<<<::(<<<<<<<<<<(:^^^^^^^^^^^_~!)))",
")))!~:(<<<<<<<<<<(::<<<<<<<<<<<<::(<<<<<<<<<<(:^^^^^^^^^^^_~!)))",
")))!~:(<<<<<<<<<<(::<<<<<<<<<<<<::(<<<<<<<<<<(:^^^^^^^^^^^_~!)))",
")))!~:(<<<<<<<<<<(::<<<<<<<<<<<<::(<<<<<<<<<<(:^^^^^^^^^^^_~!)))",
")))!~:(<<<<<<<<<<(::<<<<<<<<<<<<::(<<<<<<<<<<(:^^^^^^^^^^^_~!)))",
")))!~:(<<<<<<<<<<(::<<<<<<<<<<<<::(<<<<<<<<<<(:^^^^^^^^^^^_~!)))",
")))!~:(<<<<<<<<<<(::<<<<<<<<<<<<::(<<<<<<<<<<(:^^^^^^^^^^^_~!)))",
")))!~:(<<<<<<<<<<(::<<<<<<<<<<<<::(<<<<<<<<<<(:_:::::::::__~!)))",
")))!~:(<<<<<<<<<<(::<<<<<<<<<<<<::(<<<<<<<<<<(::((((((((((:~!)))",
")))![((<<<<<<<<<<(::<<<<<<<<<<<<::(<<<<<<<<<<(::<<<<<<<<<(:[!)))",
")))![(<<<<<<<<<<<<((<<<<<<<<<<<<((<<<<<<<<<<<<((<<<<<<<<<<([!)))",
")))!!!!!!!!!!!!!!![[!!!!!!!!!!!![[!!!!!!!!!!!![[!!!!!!!!!!!!!)))",
")))!!)!!!!!!!!!!!)!!!!!!!!!!!!!!!!)!!!!!!!!!!)!!!!!!!!!!!!)!!)))",
"))))))))))))))))))))))))))))))))))))))))))))))))))))))))))))))))",
"))))))))))))))))))))))))))))))))))))))))))))))))))))))))))))))))",
";;;                    +&'}|                     .+&'&.   ; +&#'",
" .%.                    |#>+                       +'>+;..|. |>1",
" -#@                   ;.2@.                      ;.--.;.&#|;.>3",
"+&*@     .+++.     .%++.            .+++.     .+++.    4.#,@+-*3",
"=#@%     |#=*@.    .5=*&.;          +#=*@.    .#=*&.;   .+&>==63",
"7>.;    ;+=31#.   ;%*37#.4         ;+$81}.   ;+=31#.      -93333"};
