/* XPM */
static char *a654896c7e584683ca51e7ade6684e6bhJZH7309bJ9kFJNP[] = {
/* columns rows colors chars-per-pixel */
"64 64 26 1 ",
"  c #497E4B",
". c #487E4C",
"X c #66963E",
"o c #6B9A3B",
"O c #6C9B3A",
"+ c #6E9D39",
"@ c #69993C",
"# c #709F37",
"$ c #709F38",
"% c #75A433",
"& c #71A036",
"* c #74A334",
"= c #75A434",
"- c #4B804B",
"; c #4D814A",
": c #548747",
"> c #578946",
", c #5E8F43",
"< c #5A8B45",
"1 c #5A8C45",
"2 c #5C8D44",
"3 c #538648",
"4 c #5F9042",
"5 c #609142",
"6 c #639440",
"7 c #649440",
/* pixels */
"****************************************************************",
"*************************************************************&+@",
"*************************************************************&5>",
"******$@+************************+@+************************+X51",
"*****&@1X&**********************&X1X***********************&X<X+",
"****&@55o&*********************&@55o**********************&X55+%",
"****+,,+&**********************+24+&**********************+15+&&",
"****&X@&%**********************#X@&%**********************+X@&@5",
"****&&&************************&&&************************&&&&53",
"************************************************************%&@6",
"**************************************************************&&",
"***************************************************************%",
"****************************************************************",
"****************************************************************",
"****************************************************************",
"****************************************************************",
"****************************************************************",
"****************************************************************",
"*************************************************************&+@",
"*************************************************************&5:",
"*************************************************************&X,",
"**************************************************************&$",
"**************************************************************%%",
"**************************************************************&&",
"************************=**************************=*********&@5",
"***********************&&&************************&&&********&53",
"**********************&@5+***********************&@5+********&oX",
"**********************&X<X#&*********************&X<X&&*******&&",
"***********************+X45$**********************+X45#********=",
"************************&5,+***********************#54+*********",
"************************&+O&***********************&++&*********",
"****************************************************************",
"****************************************************************",
"******&o+************************#o+************************$o$*",
"*****&@1X&**********************&@1@***********************&X1@*",
"****&@5,@&*********************&@54@**********************&@54o*",
"****+,,+&**********************+,4+&**********************+25+&&",
"****#XX&%**********************+6X&%**********************+6@&oX",
"****&&&************************&&&************************&&&&53",
"***********************************************************=%&@5",
"**************************************************************&&",
"**************************************************************%%",
"**************************************************************&$",
"*************************************************************&X,",
"*************************************************************&5:",
"*************************************************************&+@",
"****************************************************************",
"****************************************************************",
"****************************************************************",
"****************************************************************",
"****************************************************************",
"****************************************************************",
"%***************************************************************",
"&&*********************************************************&&***",
"6@&*********************=**************************=******#Xo&=*",
"35&=*******************&&&************************&&&*****+15$&*",
"5@&********************oX+***********************&oX+=****#X55+*",
"&&********************&X<X&&*********************&X<X&&****&X<X#",
"%%%********************+X47#*********************&+X4X&***%*+X54",
"*&$&********************#5,+***********************+4,+%&&#&*#,;",
"*o5@*******************%&O@&**********************%&oo&%&X5#%&, ",
"+X1@*****&+++&*****&$++&************&+++&*****&+++&****=&52@+o1 ",
"<5@$*****#5<1@&****&6<1X&%**********+5<1@&****&5<1X&%***&+X,<<3 ",
"-,&%****%+< ;5&***%$1 -5&=*********%+>.;7&***%+< ;5&******o:    "
};
