/* XPM */
static char *_5c6c64ad1c649dfc089545355c38f15dVEQWRrssSxBYRHJ[] = {
/* columns rows colors chars-per-pixel */
"48 48 5 1 ",
"  c None",
". c #141B1B",
"X c #345A52",
"o c #4A7F4B",
"O c #74A334",
/* pixels */
"                                                ",
"           ..    ..        ..      ..           ",
"        ...OO....OO........OO......OO...        ",
"      ..OOOoOOOOOOoOOoooOOOoOOOOOOOOoOOO..      ",
"     .oOOOOOoOOOOoOOOOoOOOOOoOOOOOOoOOOOOo.     ",
"    .oOOOOOOOOOOOOOOoOOOOOOOOOOOOOOOoOOOOOo.    ",
"   .ooOOOOOOOOOOOOOOOoOOOOOOOOOOOOOOOoOOOOOo.   ",
"  .oOOOOOOOOOOOOOOOOOOOOOOOOOOOOOOOOOOOOOOOOo.  ",
"  .ooOOOOOOOOOOOOOOOOOOOOOOOOOOOOOOOOOOOOOOoo.  ",
" .ooOOOOOOoOOOOOOOOOOOOOOOoOOOOOOOOOOOOOOOoOoo. ",
" .oOOOOOOoOOOOOOOOOOOOOOOoOOOOOOOOOOOOOOOoOOOo. ",
" .oooOOOOOOOOOOOOOOOOOOOOOOOOOOOOOOOOOOOOOOooo. ",
" .ooOOOOOOOOOOOOOOOOOOOOOOOOOOOOOOOOOOOOOOOOoo. ",
" .oOOOOOOOOOOOOOOOOOOOOOOOOOOOOOOOOOOOOOOOOOOo. ",
" .ooOOOOOOOOOOOOOOOOOOOOOOOOOOOOOOOOOOOOOOOOoo. ",
" .oOOOOOOOOOOOOOOOOOOOOOOOOOOOOOOOOOOOOOOOOOOo. ",
" .ooOOOOOOOOOOOOOOOOOOOOOOOOOOOOOOOOOOOOOOOOoo. ",
" .oooOOOOOOOOOOOOOOOOOOOOOOOOOOOOOOOOOOOOOOooo. ",
" .ooOOOOOOOOOOOOOOOOOOOOOOOOOOOOOOOOOOOOOOOOoo. ",
" .oOOOOOOOOOOOOOOOOOOOOOOOOOOOOOOOOOOOOOOOOOOo. ",
" .oooOOOOOOOOOOOOOOOOOOOOOOOOOOOOOOOOOOOOOOooo. ",
" .oooOOOOOOOOOOOOOOOoOOOOOOOOOOOOOOOoOOOOOOOoo. ",
" .oOOoOOOOOOOOOOOOOOOoOOOOOOOOOOOOOOOoOOOOOOOo. ",
" .ooOOOOOOOOOOOOOOOOOOOOOOOOOOOOOOOOOOOOOOOOoo. ",
" .oOOOOOOOOOOOOOOOOOOOOOOOOOOOOOOOOOOOOOOOOOOo. ",
" .oOOOOOOOoOOOOOOOOOOOOOOOoOOOOOOOOOOOOOOOoOOo. ",
" .ooOOOOOoOOOOOOOOOOOOOOOoOOOOOOOOOOOOOOOoOOoo. ",
" .oooOOOOOOOOOOOOOOOOOOOOOOOOOOOOOOOOOOOOOOooo. ",
" .ooOOOOOOOOOOOOOOOOOOOOOOOOOOOOOOOOOOOOOOOOoo. ",
" .ooOOOOOOOOOOOOOOOOOOOOOOOOOOOOOOOOOOOOOOOOoo. ",
" .oooOOOOOOOOOOOOOOOOOOOOOOOOOOOOOOOOOOOOOOooo. ",
" .ooOOOOOOOOOOOOOOOOOOOOOOOOOOOOOOOOOOOOOOOOoo. ",
" .oOOOOOOOOOOOOOOOOOOOOOOOOOOOOOOOOOOOOOOOOOOo. ",
" .ooOOOOOOOOOOOOOOOOOOOOOOOOOOOOOOOOOOOOOOOOoo. ",
" .oOOOOOOOOOOOOOOOOOOOOOOOOOOOOOOOOOOOOOOOOOOo. ",
" .ooOOOOOOOOOOOOOOOOOOOOOOOOOOOOOOOOOOOOOOOOoo. ",
" XoOOOoOOOOOOOOOOOOOOOOOOOOOOOOOOOOOOOOOOoOOOoX ",
" XoOooOOOOOOOOOOOOOOoOOOOOOOOOOOOOOOoOOOOOoOOoX ",
" XooooOOOOOOOOOOOOOOOoOOOOOOOOOOOOOOOoOOOOOoooX ",
" XoooOOoOOOOOOOOOOOOOOOOOOOOOOOOOOOOOOOOoOOoooX ",
" XoooooOOOOOooOOOOooOOOOOOOOooOOOOooOOOOOoooooX ",
" XoooooooOoooOOOOOOooOOooOoooOOOOOOooOOoooooooX ",
"  XOooooooOoooOooooooOooooOoooooOooooOoooooooX  ",
"  XOoOoOoooooooooOoooooooOoooooooooooooOoooOoX  ",
"   XoOoOoOoOoOoOoOoOoOoOoOoOoOoOoOoOoOoOoOoOX   ",
"    XXoOoOoOoOoOoOoOoOoOoOoOoOoOoOoOoOoOoOXX    ",
"      XXXXXXXXXXXXXXXXXXXXXXXXXXXXXXXXXXXX      ",
"                                                "
};
