/* XPM */
static char *_9d0a71e09bc4cfbd5cf67427e73018dcDFBevDvcMjvrYeg[] = {
/* columns rows colors chars-per-pixel */
"64 64 145 2 ",
"   c #010101",
".  c #090302",
"X  c #060A04",
"o  c #0C0906",
"O  c #020409",
"+  c #0D0B0B",
"@  c #120603",
"#  c #110C06",
"$  c #130E0B",
"%  c #0D1207",
"&  c #0E1209",
"*  c #13110E",
"=  c #151C0E",
"-  c #151312",
";  c #181413",
":  c #161C11",
">  c #191E13",
",  c #1B171A",
"<  c #191818",
"1  c #211817",
"2  c #221D19",
"3  c #1C2315",
"4  c #1F2817",
"5  c #1E2418",
"6  c #202A17",
"7  c #22251A",
"8  c #2A261A",
"9  c #232C1B",
"0  c #2E281E",
"q  c #30291E",
"w  c #26301D",
"e  c #262626",
"r  c #292722",
"t  c #2C2922",
"y  c #262628",
"u  c #322C20",
"i  c #353024",
"p  c #2F2E33",
"a  c #312F33",
"s  c #392E34",
"d  c #323135",
"f  c #3C3236",
"g  c #373B37",
"h  c #373638",
"j  c #38373A",
"k  c #373B38",
"l  c #3A3939",
"z  c #755736",
"x  c #765836",
"c  c #72573B",
"v  c #785C3C",
"b  c #3B454D",
"n  c #2F445A",
"m  c #314254",
"M  c #3B4657",
"N  c #3C4853",
"B  c #324659",
"V  c #3B475A",
"C  c #3C4859",
"Z  c #765A41",
"A  c #4A7F4B",
"S  c #8F3B45",
"D  c #903B45",
"F  c #66963E",
"G  c #6C9B3B",
"H  c #709F37",
"J  c #709F38",
"K  c #74A334",
"L  c #76A33B",
"P  c #78A53C",
"I  c #4C814B",
"U  c #558747",
"Y  c #558847",
"T  c #5B8D44",
"R  c #528648",
"E  c #5F9042",
"W  c #619241",
"Q  c #6E9C42",
"!  c #779745",
"~  c #7A9546",
"^  c #769841",
"/  c #7B954B",
"(  c #7C994C",
")  c #7C9552",
"_  c #75A241",
"`  c #78A442",
"'  c #81944D",
"]  c #829652",
"[  c #BBA567",
"{  c #BEA867",
"}  c #BDA66A",
"|  c #BEA86A",
" . c #BCA873",
".. c #BFAB7E",
"X. c #C0A766",
"o. c #C4A967",
"O. c #C0A76A",
"+. c #C2A96A",
"@. c #C2A770",
"#. c #C0AC7D",
"$. c #948F87",
"%. c #8E9283",
"&. c #949283",
"*. c #999187",
"=. c #93918A",
"-. c #98938C",
";. c #BDA982",
":. c #B5B7A2",
">. c #B4B7A4",
",. c #B6B9A5",
"<. c #B9B9A7",
"1. c #B7B7A9",
"2. c #B8B7AA",
"3. c #BAB7AC",
"4. c #B7B9A9",
"5. c #B9B9A9",
"6. c #BBBAAB",
"7. c #BBBAAD",
"8. c #BCBBAE",
"9. c #BBBCAF",
"0. c #BDBCAE",
"q. c #BEBCB0",
"w. c #C1AE82",
"e. c #C2BBAE",
"r. c #C3BCAD",
"t. c #DCDAD5",
"y. c #DEDEDA",
"u. c #F7D7C4",
"i. c #F6DAC7",
"p. c #FBDAC6",
"a. c #F5D5CB",
"s. c #F8D7CC",
"d. c #F5D8CD",
"f. c #FCD9CB",
"g. c #F9D9CC",
"h. c #FCD9CD",
"j. c #E2DED5",
"k. c #E0DFDA",
"l. c #F7DDD0",
"z. c #FBDBD0",
"x. c #DEE0DC",
"c. c #E4E0D6",
"v. c #E4E0D8",
"b. c #FCFCF6",
"n. c #FDFDFA",
/* pixels */
"K K K K K K K K K K K K K K K K K K K K K K K K K K K K K K K K K K K K K K K K K K K K K K K K K K K K K K K K K K K K K K K K ",
"K K K K K K K K K K K K K K K K K K K K K K K K K K K K K K K K K K K K K K K K K K K K K K K K K K K K K K K K K K K K K K G G ",
"K K K K K K K K K K K K K K K K K K K K K K K K K K K K K K K K K K K K K K K K K K K K K K K K K K K K K K K K K K K K K K W Y ",
"K K K K K K J G G K K K K K K K K K K K K K K K K K K K K K K K K G G G K K K K K K K K K K K K K K K K K K K K K K K K G F W T ",
"K K K K K K G T F K K K K K K K K K K K K K K K K K K K K K K K K F T F K K K K K K K K K K K K K K K K K K K K K K K K F T F G ",
"K K K K K G W W G K K K K K K K K K K K K K K K K K K K K K K K G W W G K K K K K K K K K K K K K K K K K K K K K K K F W W G K ",
"K K K K G T T G K K K K K K K K K K K K K K K K K K K K K K K G T E G K K K K K K K K K K K K K K K K K K K K K K K G T W G K K ",
"K K K K K F G K K K K K K K K K K K K K K K K K K K K K L L K H F G K K K K K K K K K K K K K K K K K K K K K K K K G F G K G W ",
"K K K K K K K K K K K K K K K K K K K K K K K K K K K L ,.,.P K K K K K K K K K K K K K K K K K K K K K K K K K K K K K K K W R ",
"K K K K K K K K K K K K K K K K K K K K K K K K K K K P >.:.P K K K K K K K K K K K K K K K K K K K K K K K K K K K K K K K G W ",
"K K K K K K K K K K K K K K K K K K K K K K K K K K 5.,.L L K K K K K K K K K K K K K K K K K K K K K K K K K K K K K K K K K K ",
"K K K K K K K K K K K K K K K K K K K K K K K K K K 5.<.P P K K P P K K P P K K K K K K K K K K K K K K K K K K K K K K K K K K ",
"K K K K K K K K K K K K K K K K K K K K K K K K K K 5.5.: 3 L K & 4 K K 3 = K K K K K K K K K K K K K K K K K K K K K K K K K K ",
"K K K K K K K K K K K K K K K K K K K K K K K K K K 4.1.< 3 L K * 7 K K 3 : K K K K K K K K K K K K K K K K K K K K K K K K K K ",
"K K K K K K K K K K K K K K K K K K K K K P 3 9 K K = + 5.1.3 3 7.1.7 5 1.1.3 9 K K K K K K K K K K K K K K K K K K K K K K K K ",
"K K K K K K K K K K K K K K K K K K K K K P   > K K %   8.7.o   q.5.+ o 5.5.X : K K K K K K K K K K K K K K K K K K K K K K K K ",
"K K K K K K K K K K K K K K K K K K K K =   0.5.+ X 7.0.0.0.0.0.0.0.0.0.0.0.0.7.+ X P K K K K K K K K K K K K K K K K K K K K K ",
"K K K K K K K K K K K K K K K K K K L L > o 0.7.; $ 2.5.5.7.0.0.7.5.5.5.0.0.7.1.$ X ` L K K K K K K K K K K K K K K K K K K K K ",
"K K K K K K K K K K K K K K K K K L 4 3 1.5.0.0.7.7.h h h l 7.0.h h h l 7.8.h h a d = 4 K K K K K K K K K K K K K K K K K K G G ",
"K K K K K K K K K K K K K K K K K L 3 : 5.8.0.0.8.8.d d d h 7.9.d d d d 7.7.d d s s   : K K K K K K K K K K K K K K K K K K W U ",
"K K K K K K K K K K K K K K K K K K P L =   0.5.l d d d d d d h d d d d d d d s S S s p : 6 L K K K K K K K K K K K K K K K F T ",
"K K K K K K K K K K K K K K K K K K P L =   7.3.h d d d d d d d d d d d d d d f S D s a & 3 L K K K K K K K K K K K K K K K K J ",
"K K K K K K K K K K K K K K K K K L : & 7.8.d d d d d d 8.8.8.0.8.8.0.0.0.0.8.5.f s d k K K K K K K K K K K K K K K K K K K K K ",
"K K K K K K K K K K K K K K K K K L 3 ; 1.3.d d d d h l 0.0.e.r.0.0.e.e.0.0.r.5.l h d g L L K K K K K K K K K K K K K K K K K K ",
"K K K K K K K K K K K K K K K K > 3 1.5.l h d d d d 5.5.r.e.g.g.0.r.g.g.r.r.g.g.8.8.d a > 6 L K K K K K K K K K K K K K K K G W ",
"K K K K K K K K K K K K K K K K   & 7.8.d d d d d d 8.0.e.e.g.g.e.r.g.h.r.r.h.f.r.8.d a   : L K K K K K K K K K K K K K K K W R ",
"K K K K K K K K K K K K K K K K P ` =   a d d h 2.8.8.r.g.g.*.$.=.=.g.h.r.r.h.s.=.=.  = L P K K K K G W G K K K K K K K K K G F ",
"K K K K K K K K K K K K K K K K P ` =   a d d l 8.e.0.r.f.f.-.=.%.&.i.i.r.r.i.i.=.=.  : L P K K K K F T F K K K K K K K K K K K ",
"K K K K K K K K K K K K K K K K & = 7.7.h d 8.e.g.g.e.r.f.h.n.b.) ~ / ] p.p.' ] b.n.0.2.: 3 L K K K G F E W H K K K K K K K K K ",
"K K K K K K K K K K K K K K K K = > 5.7.l h 8.r.g.h.e.r.h.h.n.n.~ ^ ! / p.p.~ ( b.n.8.2.3 4 L K K K K H W E G K K K K K K K K K ",
"K K K K K K K K K K K K K K K K L L > - 1.5.0.r.g.h.f.g.h.h.n.b.~ ^ ^ / p.p.~ ( b.n.  > L L K K K K K K G G K K K K K K K K K K ",
"K K K K K K K K K K K K K K K K K L = + 5.0.0.e.h.h.h.h.h.l.n.n./ ~ ! / p.p./ ) b.n.  = K K K K K K K K K K K K K K K K K K K K ",
"K K K K K K K K K K K K K K K K K K K K =   8.r.g.h.h.s.$ ; d.z.b.n.n.b.z.z.b.b.l.z.  = K K K K K K K K K K K K K K K K K K K K ",
"K K K K K K K G G K K K K K K K K K L L =   5.5.a.a.f.s.1 1 a.d.b.n.n.b.z.z.n.n.d.d.  = K K K K K K K K K K K K K K K K J G J K ",
"K K K K K K G T F K K K K K K K K L 4 =     * * ; , f.h.g.d.1 ; < < < 7 a.h.z.d.2 ;   = K K K K K K K K K K K K K K K K F T G K ",
"K K K K K G W T G K K K K K K K K L =             o d.f.h.g.1 - - * $ 1 a.f.g.a., #   = K K K K K K K K K K K K K K K G W E G K ",
"K K K K G T T G K K K K K K K K = = e e e e e e e e . @ g.h.d.a.a.a.a.a.h.s.# $ ;.;.r e = 6 L K K K K K K K K K K K G T W G K K ",
"K K K K H F F K K K K K K K P P     e e e e e e e e   . d.s.s.s.s.s.s.s.s.a.o # ..w.t e   = ` P K K K K K K K K K K G W G K G F ",
"K K K K K K K K K K K K K K 4   e e e e e e e e e e e e o o o o o o o o o o < 2 #.w.t e e e X X K K K K K K K K K K K K K K W R ",
"K K K K K K K K K K K K L L 3   e e e e e e t t e e e e                     2 8 ;.;.r e e e     K K K K K K K K K K K K K K G W ",
"K K K K K K K K K K K P 4 3 e e e e e e y r } [ t e e e e e e e e e e e e r ;.;.i t e e e e e e > 9 K K K K K K K K K K K K K K ",
"K K K K K K K K K K K P %   e e e e e e r 0 } [ u r e e e e e e e e e e e r w.;.t e e e e e t t   > K K K K K K K K K K K K K K ",
"K K K K K K K K K K K P %   e e e e e t [ [ . # [ } r e e e e e e e e e e e r r e e e e e t [ }   > K K K K K K K K K K K K K J ",
"K K K K K K K K K K K P %   t t t t t u [ [ . # } [ q t t t t t t t t t t t t t t t t t t u O.@.  > K K K K K K K K K K K K F T ",
"K K K K K K K K K K K P & # } X.| | { [ # o     m b } O.O.| | | | | | | | | | | O.O.O.| { | p.f.  > K K K K K K K K K K K K W U ",
"K K K K K K K K K K K P % # } o.o.o.o.@..       M N  .+.+.+.+.+.+.+.+.+.+.+.| | O.{ o.o.+.+.f.z.  3 K K K K K K K K K K K K G G ",
"K K K K K K K K K K K P & ; u.p.p.p.p.p..     - t.y.j.j.j.j.j.j.j.j.j.j.j.t.* o o $ u.p.p.f.h.h.  3 K K K K K K K K K K K K K K ",
"K K K K K K K K K K K P % ; s.h.h.h.h.g..     ; j.c.v.c.v.v.c.c.v.c.c.c.c.j.+     o g.h.h.h.h.h.  > K K K K K K K K K K K K K K ",
"K K K K K K K K K K K P % ; s.h.h.h.h.g..       c x z z x x | O.x z x z z c .     o g.h.h.h.h.h.  > K K K K K K K K K K K K K K ",
"K K K K K K K K K K K P 4 7 a.s.s.s.a.a.3 >   . Z v v v v v O.+.v v v v v Z .   > 4 a.s.s.s.s.d.> w K K K K K K K K K K K K K K ",
"K K K K K K K K K K K K K K 7 ; ; ; ; > L L   - t.j.j.j.j.j.c.c.j.j.j.j.j.t.+ : L K > ; ; ; ; ; K K K K K K K K K K K K K K K K ",
"K K K K K K K K K K K K K K 4 % % % % = L L X < y.x.x.x.x.x.y.y.x.x.x.x.x.y.+ 3 K K = % % % % & K K K K K K K K K K K K K K K K ",
"K K K K K K K K K K K K K K P P P P P L 6 : m m B B B B B B B B B B B B B B m m : = ` P P P P P K K K K K K K K K K K K K K K K ",
"K K K K K K K K K K K K K K K K K K P L :   m m B n n n n B m m B n B n n B n m O   ` P K K K K K K K K K K K K K K K K K K K K ",
"W G K K K K K K K K K K K K K K K L = X m m n n n n n n B m O   m B n n n n n n m m X = K K K K K K K K K K K K K K H F G K K K ",
"R W K K K K K K K K K K K K K K L L 7 ; M C C C C C C V m m 3 > m m C C C C C C C M ; 7 K L K K K K K K K K K K K K G T W J K K ",
"W G K K K K K K K K K K K K K K > 7 a.s.s.s.s.s.s.s.g.a.- : L K   $ a.s.s.s.s.s.s.g.s.a.7 6 L K K K G F G K K K K K H F W W G K ",
"K K K K K K K K K K K K K K K K   $ d.z.g.g.g.g.g.g.g.a.; = L K X * d.g.g.g.g.g.g.g.z.d.- : L K K K F T F K K K K K K K F T F H ",
"K K K K K K K K K K K P = % % & d d d d d d d d d d   = L P K K P ` =   d d d d d d d d d a % % % 4 G F E F K K K K K K G F W E ",
"K K J K K K K K K K P ` &       d d d d d d d d d d   = K K K K K L =   a d d d d d d d d d X     3 L _ E T G K K K H K K H T I ",
"K G W G K K K K K K = & y.k.y.y.d d d d d d d d d d   = K K K K K L =   a d d d d d d d d j t.k.k.t.> = Q G K K K F W H K K T A ",
"G F T G K K K K K K %   y.y.y.y.a d d d d d a a d d   = K K K K K L =   a d d d d d d d d h t.y.y.t.; % P K K K K W T G G G T A ",
"T W G J K K K K K H +   + + + +                       = K K K K K L =                       + + + +   % P K K K K G F T T T R A ",
"I T K K K K K K K G +                                 = K K K K K L =                                 % P K K K K K G U A A A A "
};
