/* XPM */
static char *_0c33b0876ed4586daf10b83bc095c34JiVNoI4Vf5YwSyTm[] = {
/* columns rows colors chars-per-pixel */
"64 64 225 2 ",
"   c #020302",
".  c #030A04",
"X  c #080A04",
"o  c #040309",
"O  c #040B08",
"+  c #090F0B",
"@  c #051305",
"#  c #091505",
"$  c #031A03",
"%  c #0C1B06",
"&  c #05140A",
"*  c #09150D",
"=  c #07180A",
"-  c #0D1C0A",
";  c #11170F",
":  c #111C09",
">  c #0D1710",
",  c #0C1D12",
"<  c #111E16",
"1  c #0D2307",
"2  c #0D200C",
"3  c #122807",
"4  c #12270C",
"5  c #152A0C",
"6  c #0E330F",
"7  c #17350A",
"8  c #0B2315",
"9  c #0D2615",
"0  c #0E2B16",
"q  c #0F2F1A",
"w  c #122515",
"e  c #182612",
"r  c #112C16",
"t  c #1B2C14",
"y  c #132619",
"u  c #122E1B",
"i  c #1A2A1B",
"p  c #063714",
"a  c #0D3316",
"s  c #063A15",
"d  c #0C3916",
"f  c #0E311A",
"g  c #063D1B",
"h  c #0C3B1B",
"j  c #103116",
"k  c #193113",
"l  c #11311A",
"z  c #133B1C",
"x  c #1B3D1F",
"c  c #253C1A",
"v  c #253F1B",
"b  c #1A2C21",
"n  c #143120",
"m  c #054117",
"M  c #0B4217",
"N  c #06431B",
"B  c #0B441D",
"V  c #064B1D",
"C  c #0B4A1D",
"Z  c #1D4B16",
"A  c #15421A",
"S  c #1B451E",
"D  c #07531E",
"F  c #0A531F",
"G  c #045D1E",
"H  c #0A5C1D",
"J  c #23441A",
"K  c #2C471F",
"L  c #2B491E",
"P  c #25521D",
"I  c #05611E",
"U  c #0C621E",
"Y  c #16691E",
"T  c #0C4422",
"R  c #074A20",
"E  c #0B4D22",
"W  c #104624",
"Q  c #1F4522",
"!  c #124D23",
"~  c #065622",
"^  c #0B5523",
"/  c #045D21",
"(  c #0A5A23",
")  c #0D5628",
"_  c #0A5C29",
"`  c #115325",
"'  c #165727",
"]  c #2C4620",
"[  c #214A22",
"{  c #2D4B22",
"}  c #334B29",
"|  c #265224",
" . c #2A5122",
".. c #2F5A27",
"X. c #235329",
"o. c #2D552B",
"O. c #285C29",
"+. c #355728",
"@. c #2A5F30",
"#. c #3B5C30",
"$. c #036021",
"%. c #0D6422",
"&. c #0E6528",
"*. c #126322",
"=. c #156A26",
"-. c #1A6D24",
";. c #166729",
":. c #1D622D",
">. c #166A29",
",. c #1B6D2A",
"<. c #1D732C",
"1. c #1D7431",
"2. c #24622D",
"3. c #27692B",
"4. c #3C642C",
"5. c #36692E",
"6. c #3B6C2D",
"7. c #20752D",
"8. c #2C722F",
"9. c #2C7D2C",
"0. c #317F2A",
"q. c #286B33",
"w. c #3D6433",
"e. c #3C6D30",
"r. c #237631",
"t. c #2A7633",
"y. c #257B33",
"u. c #2A7E34",
"i. c #267B39",
"p. c #307E36",
"a. c #426C32",
"s. c #466934",
"d. c #487838",
"f. c #4A7A3B",
"g. c #55763E",
"h. c #537A3C",
"j. c #367841",
"k. c #557E43",
"l. c #2B822E",
"z. c #32852E",
"x. c #36892E",
"c. c #3D932F",
"v. c #278132",
"b. c #2C8234",
"n. c #268138",
"m. c #2C8239",
"M. c #328434",
"N. c #3B8536",
"B. c #368B32",
"V. c #3D8C34",
"C. c #328438",
"Z. c #3C8139",
"A. c #3E8A39",
"S. c #3E9135",
"D. c #3E9439",
"F. c #428735",
"G. c #438C34",
"H. c #48843A",
"J. c #428E3B",
"K. c #51813A",
"L. c #568E3B",
"P. c #598D3D",
"I. c #449434",
"U. c #4A9C36",
"Y. c #43933B",
"T. c #47993C",
"R. c #4C9C3C",
"E. c #55923B",
"W. c #4EA13E",
"Q. c #52A33D",
"!. c #57A83B",
"~. c #67BA3F",
"^. c #6BBE3E",
"/. c #588643",
"(. c #5C8F44",
"). c #499C40",
"_. c #579143",
"`. c #5C9244",
"'. c #539F43",
"]. c #5D9C44",
"[. c #649747",
"{. c #6B9E57",
"}. c #4EA142",
"|. c #4FA649",
" X c #53A343",
".X c #59A647",
"XX c #55A941",
"oX c #5CAD44",
"OX c #5AAC49",
"+X c #5EB145",
"@X c #5DB24B",
"#X c #5EBA4D",
"$X c #64A246",
"%X c #68A246",
"&X c #63AC46",
"*X c #6AAB47",
"=X c #64A34A",
"-X c #6CA24D",
";X c #65AE4A",
":X c #6BAD4D",
">X c #62B445",
",X c #6AB545",
"<X c #66BB45",
"1X c #6CBD45",
"2X c #63B44A",
"3X c #6CB44C",
"4X c #65BB4A",
"5X c #6ABD49",
"6X c #6DBD48",
"7X c #6CBC4A",
"8X c #6EBD4D",
"9X c #71BC45",
"0X c #72B44E",
"qX c #71BB4C",
"wX c #6DA652",
"eX c #6DAC52",
"rX c #70A257",
"tX c #67B452",
"yX c #6CB551",
"uX c #6CBB51",
"iX c #73B555",
"pX c #72BA52",
"aX c #79BC56",
"sX c #6DC044",
"dX c #6CC04A",
/* pixels */
"/ / / / / / / / G G G G Y @X@X0.3.| c 4.pX5X5X1X5X1X1X1X*XJ c u q u l h ^ ^ / / N 0 j u l  .| P P E.^.~.2X2X>X,X@X@X>X1X2XS.S.C.",
"G G G G G G G G G G G ( G H U +X<X8X0X9XsX6X6X1X1X1X8X5X1XpXaX] o w f d f d ( ~ h u q r  .iXqXqXqX8X5X+Xl.b.l.b.=.H J.8X1X6X6XV.",
"/ / ( ( ( ( / / / / / G ( ( H &X1X<X6X1X1X6X6X6X5X5X5X1X1X1X6XL = y u j u f ` ) h u u q | pX5X6X6X8X1X&Xp.u.b.n.=.G J.uX5X8XuXA.",
"d d d d d s ^ / / / G G ( g h .X1X<X1X1X6X5XS.B.B.B.B.B.c.5X1X*X&Xa.. - f j j z j r u q | yX6X3.[ [ Z [ A B ( %./ / %.-.-.,.-.U ",
"j j f f j a ) / G G G G F d 6 &X6X1X1X1X6XuXB.b.b.b.b.b.N.8XqX8X<Xd.  & l f j a j j u u  .pXqX .n u j l j f ` / / ( ( ( / G G / ",
", w u f j a B N H. XH.C C C C Z.G.G.G.I.R.R.M.b.b.b.b.b.b.R.U.,X1X$XP.h., 8 l j j q q f x d.d.x f f f u j f d s :.7.:.T T B B C ",
"  , u f f f j f `.6X`.l h ( / / G / / *.b.b.b.b.b.b.b.b.b.b.b.>X1X1X1X[.  . u u u u u u l l l j j j a a j u .   3.b.q.u j l j j ",
"4.6.6.6.e.e.6.6.$X6X.Xe.5.( G G G &.>.,.b.b.b.b.m.b.b.b.b.b.b.XXoX4X1X$XS Q l q u u u u j j j u y y w 0 9 5 #.w.F.T.F.6.w.w 9 w ",
"6X6X6X6X8X8XqXqX1X1X1XqX2X%.G G / 1.b.l.l.b.b.b.b.b.b.b.b.b.b.b.C.Q.1X>XC.j.z l f f u q f j u &     o   o 1 eX8X8X8X5X6XwX#     ",
"4X4X4X<X1X1X1X5X5X5X1X<X>X%./ / / 1.v.v.v.v.v.v.v.v.v.v.v.v.v.u.u. X5X@X9.p.M f f f q q l u b w 3 5 4 3 5 7 ,X^.6X6X1X1X;X7 4 3 ",
"C.C.C.I.8X1X6X1X1X1X1X1X>XU G / / G I I $.I I I I I I I I I I %.G R.1X>X9.u.( ) h f u u u O # {.pX3XuX8X3XiX6X1X1X1X6X9X1X0X8X6X",
"b.b.b.S.6X1X1X1X6X6X5XsX2XU / _ / / G / / / / / / / / / G G G G G T.dX2Xb.u.U ~ g a u j u   . $X1X6X6X1X1X1X1X6X6X1X1X6X1X6X1X5X",
"m.b.b.M.S.D.9.9.9.9.9.9.8.B h z h C / I G $./ / / / / / G / / G / ,.9.t.=.&.G / ~ F C a y   X %X1X1X1X1X1X<XI.D.Y.Y.Y.Y.U.6X1X6X",
"b.b.b.b.b.b.U / / G ( $.( f j j j E / $.( / G G / / / / / / / G / ( ( G / / / / / / E f y   . =X1X1X5X5X1X<XM.b.b.l.l.b.B.5X1X1X",
"<.3.2.2.2.:.E E R V V V B j u u j h V V C C D / / / / / / / / V C C C D / / / / G G 3.H.K.d.d.3X5X+XQ. X XQ.b.b.T.}.}. XQ.6X1X1X",
"_ E a j j f j j j j f j j q j u j a j j j d ) / / / / / / / / h a r f h ( G / / / / F.1X5X8X1X1X5XQ.b.b.b.l.b.u.oX1X1X1X1X1X5X1X",
"^ B f u 0 w w 0 0 0 0 0 9 0 0 9 0 0 0 0 w 0 C E F D ^ ^ F F ^ z a 0 f h ` ~ ~ ^ G I A.1X5X5X1X5X1XW.b.b.b.b.b.l.|.2X>X>X>X>X>X>X",
"a a u y .                                       w u f f f a f j a r a a f a f a C G A.1X6X5X1X1X1X}.b.b.b.b.b.b.l.b.b.b.b.b.b.b.",
"r f u y     - % # # # # # # # # # # # # % -     w u u u u j a f q j u j f f u j F G A.1X6X5X1X8XuX}.b.b.b.b.b.b.b.b.b.b.b.b.b.m.",
"r 8 @ .   @ {.:X:X:X:X:X:X:X:X:X:X:X:X:X:XrXt   O O O O & y u q q u q q u q u j F G A.1X6X5X5XI.B.C.b.b.b.b.b.b.b.b.7.U U U U %.",
"j ,       # eX1X1X1X1X6X6X1X1X1X6X6X6X6X1X3Xk           O u f q q f f f q f q f F G A.1X6X5X8XV.b.v.b.b.b.b.b.b.b.m.1.G / G G G ",
", +   c (.L.8X1X1X1X1X1X1X1X1X1X1X1X1X1X1X6XE.L.L.P.a.9 w r f q q q f h E D D F F G 7.A.A.A.A.7.=.y.b.b.l.b.-.>.>.,.&.G / / G G ",
"o   o { uX1X1X1X1X5X5X5X1X1X1X1X1X1X1X1X1X1X1X1X1X1XL.6 u j j u q q f h ~ / / / / / / G G G G G G <.b.m.b.u.G / / / G G / / / / ",
"  c a.d.qX1X1X1X1X6X6X6X5XoXoXoXoXoXoXoXoXoX<X1X5X8X].e.w.f l u j q f h ~ / / / / / / / / G G G / >.y.y.y.1.G G G G G / / / / G ",
"o h.8X1X5X6X6X1X1X1X9X1X2Xz.b.b.b.b.b.b.b.M.tX1X1X<X1XqX:Xz u j j j f h / / / ( / / G G G G G / / G G G G G G / / / / / / / H I ",
"1 K.6X6X6X<X<X<X<X<X4X<X+Xz.l.b.m.b.b.b.u.b.@X<X<X,X<X1X*XZ A j j u j z ) ^ ^ ^ ( / G G G / G / / G G G G G G / / / / / / / / / ",
"uX1X<X>Xx.M.C.C.C.C.b.M.M.b.b.b.b.b.b.t.H %.*.*.*.*.V.5X1X3X0Xo.a u j a d f f d D / G / / / / / / G G G ( / G / G / / / / / / B ",
"6X6X6X@Xb.n.n.n.n.m.n.b.b.b.b.b.n.b.m.i.G G / / ( ( N.uXqXpXpXo.j u u q q q u j ! ( / / / / / _ / / / / / / / ~ ( ( ( ( ( ( ( h ",
"1X!.V.B.*.&.&.&.%.%.,.b.b.b.u.=.&.&.%.%.G G G G V g S ........x l u u q q q q l z h h h h h B ^ / $./ / / ( N h g h g h h h g f ",
"<XQ.b.i.G / / / / / =.b.b.b.b.U G / G G / / / _ B j q u u u u q q u u q q q q u u u q q q q d ^ / / ( / / ( s j j f f f f f f u ",
"1XR.1.>.G / / / / / &.<.<.<.<.%.G G I ^ C B C T h j q q q q q q q u u q q u u q q u u u u u f B C C C B s a 8 , , , , , , , , , ",
"5XY.( / G G G G G / / G G / / G G G G ` a r r 0 a 0 u u q u q q q q u q q u u q f q q q q q u j f u u 0                         ",
";XA.G / G / / G G / G / / / ( F ^ ^ F ! a j 0 w y 0 y y 0 y y y y w y y y 9 u f q q q q q q q q q y y 8 o X ] ] L L K K ] K ] # ",
"H G / G G / / / G G G / / / / m f f f f l u .                             . u f f q q q q q q q u ,       1 eX6X5X6X8X6X6X8XiXc ",
"/ / G / / / ( _ ( ( ( ( ( ( ^ h u u j u u i X       + - : % - % % - - ; o . b u j u q q q q j u u <   X : 5 :X6X8X9X8X8X6X8XuXL ",
"G G G / / ( M d h d d d d z d a q f j w @ X         4.:X:X*X:X:X*X;X:X[.    O @ 9 u q q q q u = O .   } eX:X1X1X5X5XOXB.B.B.x.tX",
"/ / / / / ( d l l l l j u j j u u l l i             s.9X1X1X9X1X9X1X9X[.        w u u u u u u &       +.6X9X5X6X1X1X.Xb.b.b.C.#X",
"G G G ~ B T a j j j j j j j a j f y , *   # /.(.`.`.].1X1X5X1X1X5X5X1X3X`.`.`.[.} , - , , , , o.@.d._.].6X5X1X1X1X1XXXb.m.b.b.2X",
"/ $./ ^ j j j u u f j j j j j 0 f 2       % eX1X^.9X9X^.1X5X1X1X5X1X^.1X1X6X1X6Xw.          . q.C..X5X1X1X6X1X1X6X1XXXl.b.m.l.4X",
"=.' E W w w r w w w y y y y y r y >   t s.a.3X1X1X6X1X1X5X5X1X1X5X1X1X6X6X6X1XqXK.a.}       . 8.b.T..XQ. X XOXoXOXOX).b.b.b.b.XX",
"b.O.j 0   o                     o   o +.aX<X1X6X6X5X5X5X5X1X1X1X1X5X5X8X6X1X1XqX9XdX/.      . 8.u.<.G G ( G u.l.b.b.b.b.b.b.n.b.",
"u.O.u y   o e t t t t t e       o : t +.8XdX^.6X1X5X1X6X1X1X5X5X1X1X6X1X1X6X6X1XsX1XP.t e   o 3.t.>.( G / / y.t.u.b.b.b.b.b.b.l.",
"b.X.  .   # wX3XyX3X3XyX-X%     o g.3X3X1X6X1X5X6X6X1X1X1X1X6X6X1X1X1X1X1X1X6X5X1X1X3X,X-X#   @ @ m / / / G / G r.b.b.b.b.b.b.b.",
"m.'   . o $ :X^.<X<X1X5X:X- o . . k.8X5X5X5X1X1X1X1X1X1X1X1X1X6X1X5X8X5X5X1X1X1X1X1X6X6XwX% . . . m / / G G / G r.b.b.b.b.b.b.b.",
">X&X=X=X$X%X1X1X5X1X1X<X5X=X=X$X=X:X1X1X6X6X1X1X1X6X1X1X1X1X1X1X6X!.S.S.S.S.S.V.oX1X5X1X,X$X$X$X=XZ.G / / / / G *.*.%.%.%.%.%.%.",
"1X1X6X1X1X1X1X1X1X1X6X^.1X1X1X1X1X5X1X1X1X1X1X1X1X1X1X1X1X1X1X1X1XW.m.n.b.b.m.b.+X1X1X1X1X1XsX1XsXY./ / / / / G G / / / / / / / ",
"6X6X6X1X1X5X X}.}. XoX1X6X1X6X8X1X6X6X<XW.W. XQ.>X1X1X1X1X1X1X1X1XW.m.b.b.b.b.b.T.Q. X'.'. X X6X6XH.p h B E ( G / / / / / / G / ",
"6X6X6X1X1X5Xx.b.b.z.R.5X1X1X1X6X1X1X6X2XM.b.b.l.OX5X6X6X6X6X6X1X1XQ.b.b.b.b.b.b.b.b.b.b.b.b.l.2X1Xd.  & a p ( / / / / / / / G / ",
"1X1X1X1X>X@Xb.y.u.u.A.OXoXoXoXOXoXOXoX Xb.b.b.l.oX1X1X1X1X1X1X1X1XQ.b.b.b.b.b.b.b.b.b.b.b.b.b.OX2Xa.  * u p ( / / / / / / G G G ",
"6X1X6X@Xl.l.U / G G / G G G G G G G H =.m.b.b.b.oX1X6X6X6X6X6X1X1XQ.b.b.b.b.b.b.b.b.b.b.b.b.b.b.l.X.  * u d ^ / / / / / G / G G ",
"6X1X1X@Xb.n.%./ ( ^ ^ ) ( / / / / / G =.b.b.b.b.OX6X6X6X6X6X6X8XuX}.b.b.b.b.b.b.b.b.b.b.b.b.b.b.b.X.  & l d ^ ) ( ( ( ( ( ( ( / ",
"B.x.x.b.%.%./ / V h d h N ( / / / G / ;.b.b.b.b.B.x.B.B.B.B.B.B.B.M.b.b.b.b.b.b.b.b.b.b.b.b.b.b.b.X.  & f j d d h h h d d d g ) ",
"b.b.b.y.G G / ( B j u u h ( / / / G / ;.m.b.b.b.b.b.b.b.b.b.b.b.b.b.b.b.b.b.b.b.b.b.b.b.b.b.b.b.m.X.  * u u 0 u u u j f j a d ` ",
">.>.>.&./ / G / B f q q h ~ / / G G G =.m.b.b.b.b.b.b.b.b.b.b.,.>.>.>.>.>.>.>.>.>.>.<.b.b.b.b.-.>.' W T q q q q q f u j z E E ( ",
"/ G G / / / / / C u u q h ~ / / G G / >.m.b.b.b.b.b.b.b.b.b.m.&./ / / / / / / / / / >.m.b.b.m.%.G / / D f q q q q q u u z / / $.",
"/ / / / / G V E d r u q h ~ / / G G G &.1.<.b.b.b.b.b.b.b.7.r.%.G / / / / / / / / G =.1.<.<.1.%.H G / ^ f q q q q l z B C ( / G ",
"G G G G / / d q u a f q h ~ / / G G / / G I y.b.b.b.b.b.u.H G G G I G G G G G G G G G G G G G G G G / ~ f q q q q a C _ / / G G ",
"G / / / ^ E f f q j u u h ~ / / G G / / / / i.u.b.b.b.b.u.%.%./ / / / / / / / / / / / / / / / / / / ( ^ f q q q q f B ^ ( / / / ",
"G G / ^ a j l j q q q u h ( / / / / / / G / / G 7.b.b.b.b.b.b.&.G G / / / / / / / / / / / / / / / / / ^ f q q q q l l j g ( / / ",
"~ ~ ~ ! a l l j q q f q h ( / / / / / / / / G G 7.b.b.b.b.b.b.&.G G / / / / / / / / / / / / / / / / / ^ f q q q q l l j h ) ( / ",
"h h g d 0 j j q q q q u h ( / / / / / / / G G G %.%.%.%.%.U U $./ / / / / / / / / / / / / / / / / / / ^ f q q q q f f u f d m ~ ",
"u u q f q q q q q q u u h ^ ~ / / / / / / / / G G G G G G G G / / / / / / / / / / / / / / / / / / / / ^ f q q q q q q u u u f ) ",
"f q u u f q q q q q q u j B C ^ / / / / / / / G G G G G G G G / / / / / / / / / / / / / / / / / / / / ^ f q q q q u q q u u l T ",
"q q u j q a q f f u u q f f a ^ G G G G / / / / / / / / / / / / / / / / / / / / / / / / / / / / G / ( D f u u q q j f f u u q u "
};
